<!--?xml version="1.0" standalone="no"?--><svg version="1.0" xmlns="http://www.w3.org/2000/svg" width="298.000000pt" height="300.000000pt" viewBox="0 0 298.000000 300.000000" preserveAspectRatio="xMidYMid meet">
<metadata>
  <rdf:rdf xmlns:rdf="http://www.w3.org/1999/02/22-rdf-syntax-ns#" xmlns:rdfs="http://www.w3.org/2000/01/rdf-schema#" xmlns:dc="http://purl.org/dc/elements/1.1/">
    <rdf:description dc:title="house electrical things" dc:publisher="Hiox" dc:date="2015-04-11" dc:format="image/svg+xml" dc:language="en">
      <dc:creator>
        <rdf:bag>
          <rdf:li>svgimages.com</rdf:li>
        </rdf:bag>
      </dc:creator>
    </rdf:description>
  </rdf:rdf>
</metadata>
<g transform="translate(0.000000,300.000000) scale(0.100000,-0.100000)" fill="#10110F" stroke="none">
<path d="M1438 2814 c-9 -14 -168 -609 -168 -628 0 -9 6 -16 14 -16 8 0 19
-13 25 -30 l10 -30 135 0 c134 0 135 0 155 27 46 58 69 215 48 331 -6 35 -5
42 9 42 26 0 14 54 -13 58 -15 2 -33 23 -58 68 -40 71 -148 193 -157 178z
m121 -355 c34 -156 -11 -294 -84 -261 -16 8 -25 19 -24 34 1 34 14 63 29 63 7
0 19 18 27 40 12 35 12 41 -1 51 -13 9 -13 16 0 60 8 27 16 55 19 62 9 24 23
3 34 -49z" id="node1" class="node"></path>
<path d="M2230 2773 c-8 -3 -25 -14 -37 -25 -16 -15 -29 -18 -52 -13 -38 8
-40 -7 -10 -68 22 -41 22 -45 10 -223 -11 -163 -11 -185 3 -213 l17 -31 178 0
178 0 11 25 c7 14 12 52 12 84 0 51 3 61 30 84 44 39 64 85 63 144 0 67 -27
112 -80 138 -24 11 -44 29 -47 41 -10 37 -71 58 -171 61 -49 1 -97 0 -105 -4z
m330 -175 c26 -43 25 -95 -2 -138 l-22 -35 -7 45 c-11 68 -10 160 1 160 6 0
19 -15 30 -32z" id="node2" class="node"></path>
<path d="M252 2738 c-15 -15 -17 -168 -2 -168 13 0 112 33 165 56 45 19 136
15 176 -7 13 -7 52 -23 87 -34 l63 -22 -3 91 -3 91 -235 3 c-175 2 -239 -1
-248 -10z m438 -32 c19 -23 8 -61 -18 -64 -44 -7 -67 32 -36 62 19 20 38 20
54 2z m-105 -26 c0 -18 -6 -26 -21 -28 -26 -4 -40 24 -23 45 18 21 44 11 44
-17z" id="node3" class="node"></path>
<path d="M637 2686 c-7 -19 18 -40 39 -32 8 3 14 14 12 23 -4 22 -43 29 -51 9z" id="node4" class="node"></path>
<path d="M556 2693 c-12 -12 -6 -33 9 -33 8 0 15 6 15 14 0 17 -14 28 -24 19z" id="node5" class="node"></path>
<path d="M455 2623 c-11 -2 -40 -12 -65 -22 -25 -10 -67 -27 -95 -38 l-50 -19
-3 -184 c-1 -102 0 -195 3 -208 l5 -22 243 2 242 3 3 207 2 206 -72 25 c-40
14 -91 33 -113 41 -40 15 -63 17 -100 9z m134 -53 c47 -33 75 -100 66 -158 -5
-36 -16 -56 -49 -88 -56 -57 -114 -67 -183 -33 -63 32 -86 66 -91 136 -3 49 0
64 20 93 40 59 84 82 149 78 37 -3 66 -12 88 -28z" id="node6" class="node"></path>
<path d="M432 2563 c-126 -62 -94 -247 46 -261 95 -9 156 51 149 146 -4 59
-30 95 -84 118 -42 18 -70 17 -111 -3z m28 -17 c0 -2 -7 -7 -16 -10 -8 -3 -12
-2 -9 4 6 10 25 14 25 6z m102 -16 c14 -10 31 -33 38 -49 13 -33 7 -96 -12
-107 -7 -4 -8 -3 -4 5 5 7 -7 28 -28 51 -29 32 -36 48 -36 80 0 45 7 48 42 20z
m-169 -45 c-3 -9 -8 -14 -10 -11 -3 3 -2 9 2 15 9 16 15 13 8 -4z m50 -154
c-2 -3 -16 8 -31 24 l-27 28 31 -24 c17 -13 30 -26 27 -28z m137 24 c0 -2 -10
-9 -22 -15 -22 -11 -22 -10 -4 4 21 17 26 19 26 11z m-62 -32 c-10 -2 -28 -2
-40 0 -13 2 -5 4 17 4 22 1 32 -1 23 -4z" id="node7" class="node"></path>


<path d="M2147 2174 c-19 -19 22 -24 194 -24 161 0 189 2 189 15 0 13 -28 15
-188 15 -104 0 -192 -3 -195 -6z" id="node10" class="node"></path>

<path d="M1232 1828 c-9 -9 -12 -70 -12 -215 l0 -203 185 0 185 0 0 199 c0
110 -3 206 -6 215 -5 14 -30 16 -173 16 -117 0 -171 -4 -179 -12z m58 -272 c0
-47 -4 -88 -10 -91 -6 -4 -10 27 -10 84 0 54 4 91 10 91 6 0 10 -35 10 -84z" id="node12" class="node"></path>
<path d="M592 1775 l-32 -27 0 -182 c0 -219 -5 -233 -64 -192 -22 14 -48 26
-59 26 -20 0 -20 -1 3 -25 12 -13 31 -48 41 -77 17 -51 19 -53 58 -56 44 -3
52 9 30 49 -8 16 -6 30 10 63 19 38 21 61 21 212 0 179 4 194 46 194 42 0 45
-15 44 -276 -1 -226 -3 -251 -20 -271 -10 -13 -27 -23 -38 -23 -36 0 -52 -11
-52 -36 l0 -24 130 0 130 0 0 24 c0 25 -16 36 -55 36 -13 0 -29 10 -39 25 -14
21 -16 61 -16 274 0 245 0 250 -22 275 -35 40 -78 43 -116 11z" id="node13" class="node"></path>
<path d="M1976 1684 c-14 -13 -16 -47 -16 -218 0 -144 3 -205 12 -214 9 -9 82
-12 265 -12 l253 0 0 230 0 230 -249 0 c-214 0 -252 -2 -265 -16z m404 -219
l0 -185 -22 4 c-13 3 -96 5 -185 5 l-163 1 0 180 0 180 185 0 185 0 0 -185z
m78 10 c-4 -173 -22 -182 -26 -13 -3 126 0 148 18 148 7 0 10 -45 8 -135z" id="node14" class="node"></path>
<path d="M2070 1325 c17 -10 57 -14 125 -14 68 0 108 4 125 14 23 13 10 14
-125 14 -135 0 -148 -1 -125 -14z" id="node15" class="node"></path>
<path d="M2510 1470 l0 -230 53 0 c29 0 58 5 65 12 17 17 17 419 0 436 -7 7
-36 12 -65 12 l-53 0 0 -230z m100 165 c0 -11 -12 -15 -45 -15 -33 0 -45 4
-45 15 0 11 12 15 45 15 33 0 45 -4 45 -15z m-18 -141 c4 -3 -1 -20 -10 -37
-10 -18 -18 -34 -19 -35 -1 -2 -10 1 -20 7 -10 6 -13 11 -7 11 6 0 17 14 24
30 12 29 21 36 32 24z m8 -130 c0 -3 -5 -10 -10 -17 -6 -7 -17 -21 -24 -31 -7
-10 -18 -16 -24 -12 -8 4 -5 13 8 26 11 11 20 27 20 35 0 9 6 12 15 9 8 -4 15
-8 15 -10z" id="node16" class="node"></path>
<path d="M285 1396 c-23 -7 -50 -18 -60 -24 -18 -10 -15 -11 18 -12 78 0 127
-50 127 -128 0 -21 -7 -47 -15 -58 -8 -10 -15 -22 -15 -27 0 -11 109 -6 116 5
3 5 11 2 18 -7 18 -25 50 -15 54 17 2 20 -2 28 -18 33 -12 4 -19 9 -17 12 11
10 46 -18 50 -39 3 -20 6 -19 20 14 9 21 17 40 17 43 0 3 -20 5 -45 5 -28 0
-47 5 -49 13 -2 6 -9 31 -15 55 -7 23 -26 58 -42 77 -35 39 -70 44 -144 21z
m188 -211 c-3 -9 -8 -14 -10 -11 -3 3 -2 9 2 15 9 16 15 13 8 -4z" id="node17" class="node"></path>
<path d="M1220 1246 c0 -109 3 -138 16 -150 23 -23 315 -23 338 0 13 12 16 41
16 150 l0 134 -185 0 -185 0 0 -134z m70 49 c0 -25 -4 -45 -10 -45 -5 0 -10
20 -10 45 0 25 5 45 10 45 6 0 10 -20 10 -45z" id="node18" class="node"></path>
<path d="M203 1335 c-33 -14 -63 -59 -63 -95 0 -62 65 -117 128 -106 98 16
123 145 38 197 -36 22 -60 23 -103 4z m105 -67 c27 -57 -29 -113 -86 -86 -34
16 -43 76 -16 102 26 27 86 18 102 -16z" id="node19" class="node"></path>
<path d="M217 1272 c-32 -35 -10 -82 38 -82 40 0 59 55 29 84 -21 21 -47 20
-67 -2z" id="node20" class="node"></path>
<path d="M2613 788 c-11 -13 -1 -543 10 -554 6 -7 15 150 21 373 3 130 1 175
-9 183 -9 7 -15 7 -22 -2z m14 -70 c-2 -13 -4 -5 -4 17 -1 22 1 32 4 23 2 -10
2 -28 0 -40z" id="node21" class="node" stroke-width="20"></path>
<path d="M2220 758 c0 -12 14 -33 33 -49 26 -22 30 -30 20 -40 -20 -20 -18
-303 2 -322 13 -13 10 -18 -20 -38 -22 -16 -35 -32 -35 -46 0 -23 0 -23 175
-23 153 0 176 2 182 16 4 11 -6 27 -32 49 -26 21 -34 34 -27 39 17 10 17 307
0 324 -10 10 -5 20 26 46 28 23 37 38 33 49 -6 15 -27 17 -182 17 -173 0 -175
0 -175 -22z m238 -105 c-32 -2 -84 -2 -115 0 -32 2 -6 3 57 3 63 0 89 -1 58
-3z m0 -20 c-32 -2 -86 -2 -120 0 -35 2 -9 3 57 3 66 0 94 -1 63 -3z m0 -30
c-32 -2 -86 -2 -120 0 -35 2 -9 3 57 3 66 0 94 -1 63 -3z m0 -30 c-32 -2 -86
-2 -120 0 -35 2 -9 3 57 3 66 0 94 -1 63 -3z m52 -29 c0 -2 -53 -3 -117 -2
-114 2 -115 2 -38 7 77 6 155 3 155 -5z m-52 -21 c-32 -2 -86 -2 -120 0 -35 2
-9 3 57 3 66 0 94 -1 63 -3z m0 -30 c-32 -2 -86 -2 -120 0 -35 2 -9 3 57 3 66
0 94 -1 63 -3z m0 -30 c-32 -2 -86 -2 -120 0 -35 2 -9 3 57 3 66 0 94 -1 63
-3z m0 -30 c-32 -2 -86 -2 -120 0 -35 2 -9 3 57 3 66 0 94 -1 63 -3z m22 -19
c-82 -8 -200 -8 -200 -1 0 4 53 6 118 5 64 -1 101 -3 82 -4z m-22 -31 c-32 -2
-86 -2 -120 0 -35 2 -9 3 57 3 66 0 94 -1 63 -3z" id="node22" class="node" stroke-width="20"></path>
<path d="M1158 759 c-16 -9 -18 -30 -18 -205 0 -214 -3 -204 64 -209 17 -2 68
-3 114 -4 75 -1 82 -3 82 -21 0 -18 -7 -20 -55 -20 -52 0 -55 -1 -55 -25 l0
-25 185 0 185 0 0 25 c0 24 -3 25 -55 25 -48 0 -55 2 -55 20 0 11 3 20 8 20 4
0 58 1 120 3 96 2 116 5 127 20 20 27 19 354 -1 384 l-14 23 -308 0 c-190 0
-314 -4 -324 -11z m613 -96 c3 -148 3 -170 1 -220 l-2 -53 -295 0 -295 0 0
170 0 170 295 0 295 0 1 -67z" id="node23" class="node" stroke-width="20"></path>
<path d="M400 715 c0 -24 -3 -25 -60 -25 l-60 0 0 -110 c0 -60 -4 -110 -8
-110 -5 0 -25 -15 -44 -34 -29 -28 -45 -35 -84 -38 -36 -2 -49 -7 -49 -18 0
-13 48 -15 370 -15 322 0 370 2 370 15 0 10 -14 17 -46 20 -35 4 -56 14 -92
46 l-47 42 0 100 0 101 -57 3 c-51 3 -58 6 -61 26 -3 20 -9 22 -68 22 -62 0
-64 -1 -64 -25z m98 -32 c3 -21 9 -23 63 -23 l59 0 0 -97 0 -98 37 -32 38 -32
-229 -1 -230 0 42 31 42 31 0 99 0 99 60 0 c58 0 60 1 60 26 0 22 4 25 28 22
19 -2 28 -9 30 -25z" id="node24" class="node"></path>




<path d="M182 313 l3 -38 285 0 285 0 3 38 3 37 -291 0 -291 0 3 -37z m176 5
c-6 -18 -28 -21 -28 -4 0 9 7 16 16 16 9 0 14 -5 12 -12z m82 -4 c0 -9 -5 -14
-12 -12 -18 6 -21 28 -4 28 9 0 16 -7 16 -16z m85 7 c7 -12 -12 -24 -25 -16
-11 7 -4 25 10 25 5 0 11 -4 15 -9z m83 -3 c-6 -18 -28 -21 -28 -4 0 9 7 16
16 16 9 0 14 -5 12 -12z" id="node29" class="node"></path>



</g>
<g transform="translate(0.000000,300.000000) scale(0.100000,-0.100000)" fill="#FFFFFF" stroke="none">



<path d="M636 2704 c-31 -30 -8 -69 36 -62 26 3 37 41 18 64 -16 18 -35 18
-54 -2z m52 -27 c2 -9 -4 -20 -12 -23 -21 -8 -46 13 -39 32 8 20 47 13 51 -9z" id="node36" class="node"></path>
<path d="M541 2697 c-17 -21 -3 -49 23 -45 15 2 21 10 21 28 0 28 -26 38 -44
17z m39 -23 c0 -8 -7 -14 -15 -14 -15 0 -21 21 -9 33 10 9 24 -2 24 -19z" id="node37" class="node"></path>
<path d="M410 2578 c-19 -13 -45 -39 -58 -58 -20 -29 -23 -44 -20 -93 5 -70
28 -104 91 -136 69 -34 127 -24 183 33 54 54 66 111 36 178 -27 61 -71 91
-141 96 -46 3 -62 0 -91 -20z m133 -12 c54 -23 80 -59 84 -118 7 -95 -54 -155
-149 -146 -140 14 -172 199 -46 261 41 20 69 21 111 3z" id="node38" class="node"></path>
<path d="M435 2540 c-3 -6 1 -7 9 -4 18 7 21 14 7 14 -6 0 -13 -4 -16 -10z" id="node39" class="node"></path>
<path d="M520 2510 c0 -32 7 -48 36 -80 21 -23 33 -44 28 -51 -4 -8 -3 -9 4
-5 19 11 25 74 12 107 -12 29 -54 69 -71 69 -5 0 -9 -18 -9 -40z" id="node40" class="node"></path>
<path d="M385 2489 c-4 -6 -5 -12 -2 -15 2 -3 7 2 10 11 7 17 1 20 -8 4z" id="node41" class="node"></path>
<path d="M412 2355 c15 -16 29 -27 31 -24 3 2 -10 15 -27 28 l-31 24 27 -28z" id="node42" class="node"></path>
<path d="M554 2344 c-18 -14 -18 -15 4 -4 12 6 22 13 22 15 0 8 -5 6 -26 -11z" id="node43" class="node"></path>
<path d="M478 2323 c12 -2 30 -2 40 0 9 3 -1 5 -23 4 -22 0 -30 -2 -17 -4z" id="node44" class="node"></path>


<path d="M1270 1549 c0 -57 4 -88 10 -84 6 3 10 44 10 91 0 49 -4 84 -10 84
-6 0 -10 -37 -10 -91z" id="node47" class="node"></path>
<path d="M2010 1470 l0 -180 163 -1 c89 0 172 -2 185 -5 l22 -4 0 185 0 185
-185 0 -185 0 0 -180z m310 -145 c-17 -10 -57 -14 -125 -14 -68 0 -108 4 -125
14 -23 13 -10 14 125 14 135 0 148 -1 125 -14z" id="node48" class="node"></path>
<path d="M2434 1597 c-2 -7 -3 -68 -2 -135 4 -169 22 -160 26 13 2 90 -1 135
-8 135 -6 0 -13 -6 -16 -13z" id="node49" class="node"></path>
<path d="M2520 1635 c0 -11 12 -15 45 -15 33 0 45 4 45 15 0 11 -12 15 -45 15
-33 0 -45 -4 -45 -15z" id="node50" class="node"></path>
<path d="M2560 1470 c-7 -16 -18 -30 -24 -30 -6 0 -3 -5 7 -11 10 -6 19 -9 20
-7 1 1 9 17 19 35 15 29 14 43 -2 43 -4 0 -13 -13 -20 -30z" id="node51" class="node"></path>
<path d="M2570 1365 c0 -8 -9 -24 -20 -35 -13 -13 -16 -22 -8 -26 6 -4 17 2
24 12 7 10 18 24 24 31 13 16 13 20 -5 27 -9 3 -15 0 -15 -9z" id="node52" class="node"></path>
<path d="M465 1189 c-4 -6 -5 -12 -2 -15 2 -3 7 2 10 11 7 17 1 20 -8 4z" id="node53" class="node"></path>
<path d="M1270 1295 c0 -25 5 -45 10 -45 6 0 10 20 10 45 0 25 -4 45 -10 45
-5 0 -10 -20 -10 -45z" id="node54" class="node"></path>
<path d="M206 1284 c-27 -26 -18 -86 16 -102 57 -27 113 29 86 86 -16 34 -76
43 -102 16z m78 -10 c30 -29 11 -84 -29 -84 -48 0 -70 47 -38 82 20 22 46 23
67 2z" id="node55" class="node"></path>
<path d="M2623 735 c0 -22 2 -30 4 -17 2 12 2 30 0 40 -3 9 -5 -1 -4 -23z" id="node56" class="node"></path>
<path d="M2343 653 c31 -2 83 -2 115 0 31 2 5 3 -58 3 -63 0 -89 -1 -57 -3z" id="node57" class="node"></path>
<path d="M2338 633 c34 -2 88 -2 120 0 31 2 3 3 -63 3 -66 0 -92 -1 -57 -3z" id="node58" class="node"></path>
<path d="M2338 603 c34 -2 88 -2 120 0 31 2 3 3 -63 3 -66 0 -92 -1 -57 -3z" id="node59" class="node"></path>
<path d="M2338 573 c34 -2 88 -2 120 0 31 2 3 3 -63 3 -66 0 -92 -1 -57 -3z" id="node60" class="node"></path>
<path d="M2355 549 c-77 -5 -76 -5 38 -7 115 -2 153 3 80 9 -21 2 -74 1 -118
-2z" id="node61" class="node"></path>
<path d="M2338 523 c34 -2 88 -2 120 0 31 2 3 3 -63 3 -66 0 -92 -1 -57 -3z" id="node62" class="node"></path>
<path d="M2338 493 c34 -2 88 -2 120 0 31 2 3 3 -63 3 -66 0 -92 -1 -57 -3z" id="node63" class="node"></path>
<path d="M2338 463 c34 -2 88 -2 120 0 31 2 3 3 -63 3 -66 0 -92 -1 -57 -3z" id="node64" class="node"></path>
<path d="M2338 433 c34 -2 88 -2 120 0 31 2 3 3 -63 3 -66 0 -92 -1 -57 -3z" id="node65" class="node"></path>
<path d="M2280 413 c0 -5 37 -7 82 -5 143 4 157 9 36 10 -65 1 -118 -1 -118
-5z" id="node66" class="node"></path>
<path d="M2338 383 c34 -2 88 -2 120 0 31 2 3 3 -63 3 -66 0 -92 -1 -57 -3z" id="node67" class="node"></path>
<path d="M1180 560 l0 -170 295 0 295 0 2 53 c2 50 2 72 -1 220 l-1 67 -295 0
-295 0 0 -170z" id="node68" class="node" stroke-width="20"></path>
<path d="M440 686 c0 -25 -2 -26 -60 -26 l-60 0 0 -99 0 -99 -42 -31 -42 -31
230 0 229 1 -38 32 -37 32 0 98 0 97 -59 0 c-54 0 -60 2 -63 23 -2 16 -11 23
-30 25 -24 3 -28 0 -28 -22z" id="node69" class="node"></path>
<path d="M330 314 c0 -17 22 -14 28 4 2 7 -3 12 -12 12 -9 0 -16 -7 -16 -16z" id="node70" class="node"></path>
<path d="M412 318 c6 -18 28 -21 28 -4 0 9 -7 16 -16 16 -9 0 -14 -5 -12 -12z" id="node71" class="node"></path>
<path d="M495 321 c-7 -12 12 -24 25 -16 11 7 4 25 -10 25 -5 0 -11 -4 -15 -9z" id="node72" class="node"></path>
<path d="M580 314 c0 -17 22 -14 28 4 2 7 -3 12 -12 12 -9 0 -16 -7 -16 -16z" id="node73" class="node"></path>

<path d="M2865 120 c3 -5 8 -10 11 -10 2 0 4 5 4 10 0 6 -5 10 -11 10 -5 0 -7
-4 -4 -10z" id="node75" class="node"></path>
</g>
</svg>